<svg xmlns="http://www.w3.org/2000/svg" width="337.618" height="90.541" viewBox="0 0 337.618 90.541"><defs><style>.a{fill:#1d3463;}.a,.c{stroke:rgba(0,0,0,0);stroke-miterlimit:10;}.b,.c{fill:#cb1d3c;}</style></defs><path class="a" d="M72.554,78.214c-3.671-3.67-7.387-7.3-10.988-11.034-1.209-1.251-2.1-1.259-3.525-.3C44.7,75.872,30.873,76.155,17.23,68.024,6.565,61.668.908,51.833.092,39.31A35.7,35.7,0,0,1,10.427,10.982C17.565,3.645,26.46.108,37.849.008,54.712.07,69.893,12.694,73,30.423A35.677,35.677,0,0,1,67.423,57.15c-1.065,1.6-.954,2.567.407,3.874,4.187,4.032,8.263,8.179,12.364,12.3,2.248,2.258,2.232,2.661.044,4.864-1.92,1.936-2.879,2.9-3.841,2.9S74.475,80.134,72.554,78.214ZM36.875,11.166c-14.581.052-25.806,11.181-25.82,25.744A25.381,25.381,0,0,0,36.8,62.514C50.161,62.861,62.41,51.931,62.37,36.7a25.444,25.444,0,0,0-25.4-25.534Zm63.723,62.9c-1.917-.064-2.817-.983-2.807-3.018.06-9.41.028-18.824.028-28.234q0-13.5,0-26.991c0-3.661,0-3.659-3.567-3.659-5.675,0-11.349.016-17.024-.006-2.811-.012-3.387-.557-3.5-3.4-.078-1.933-.07-3.876-.006-5.811C73.8.649,74.489.006,76.757,0Q103.228,0,129.7.006c2.444,0,2.877.431,2.938,2.917.048,2,.036,4.015.01,6.019-.034,2.629-.553,3.191-3.17,3.206-5.951.032-11.9.01-17.856.01-3.1,0-3.1,0-3.1,3.09q0,27.719,0,55.434c0,2.853-.509,3.387-3.351,3.421q-.74.011-1.48.011Q102.142,74.114,100.6,74.062Z" transform="translate(74.52 3.923)"/><path class="b" d="M414.836,614.849l5.22,7.7c-.432.479-.856,1-1.328,1.466q-7.352,7.336-14.718,14.658c-5.8,5.75-12.944,5.933-18.757.2-10.846-10.694-21.662-21.424-32.294-32.33a31.684,31.684,0,0,1-6.016-35.426,32.121,32.121,0,0,1,31.7-18.467,30.947,30.947,0,0,1,14.248,4.757,2.655,2.655,0,0,0,3.313.013c9.863-5.931,20.1-6.374,30.607-1.789.428.187.8.49.3-.025-1.733,2.248-3.435,4.523-5.238,6.715a1.767,1.767,0,0,1-1.495.187c-9.66-2.9-17.861-.37-24.888,6.615a11.249,11.249,0,0,1-.943.749c-1.107-.94-2.208-1.865-3.3-2.805-8.8-7.6-22.431-7.539-30.469-.118-10.15,9.366-9.914,23.186-2.968,31.864a37.543,37.543,0,0,0,2.823,3.043q15.125,15.132,30.269,30.244c2.863,2.859,4.4,2.838,7.323-.074q7.583-7.546,15.141-15.116A16.078,16.078,0,0,0,414.836,614.849Z" transform="translate(-343.978 -552.541)"/><path class="c" d="M93.662,54.66c-7.676-3.367-11.421-9.645-11.738-17.854C81.521,26.331,86.668,18.567,96,16.141c12.869-3.345,22.953,3.766,22.686,18.682-.03,1.612-.94,1.687-2.174,1.682-8.167-.03-16.332-.018-24.5-.01-.808,0-1.616.066-2.581.11.191,5.205,2.192,9.272,6.531,11.722,6.669,3.766,12.941,1.921,19.179-2.224.858,1.472,1.732,2.8,2.388,4.219a1.759,1.759,0,0,1-.439,1.636,25.643,25.643,0,0,1-14.2,4.717A22.787,22.787,0,0,1,93.662,54.66ZM89.973,31.8h20.789c.708-5.273-3.208-10.322-8.167-10.713-.325-.026-.649-.038-.97-.038C95.4,21.049,90.079,25.788,89.973,31.8ZM6.763,46.324C6.585,33.864,6.669,21.4,6.645,8.939c-.006-2.863-.006-2.825-2.793-2.88-.66-.014-1.207,0-1.66.008C-.357,6.129.036,6.191.006,2.037,0,1.632.09,1.225.174.473H9.46c4.469,0,4.469,0,4.469,4.48q0,18.488,0,36.973c0,1.107.024,2.218.086,3.322.188,3.359,1.412,4.532,4.792,4.646.4.016.8.054,1.374.092v5.386a16.4,16.4,0,0,1-3.913.505C10.583,55.878,6.849,52.3,6.763,46.324Zm46.4,6.827a24.794,24.794,0,0,0,.02-3.008c1.614,0,3.04-.038,4.463.01,1.169.038,1.791-.295,1.783-1.628q-.051-12.566,0-25.133c.008-1.3-.531-1.728-1.736-1.642-.692.052-1.386.006-2.077.006-2.783,0-2.651-.012-2.823-2.849-.124-2.067.447-3.024,2.619-2.657a3.335,3.335,0,0,0,.736.012,3.4,3.4,0,0,1,.714.01c1.949.289,2.659-.427,2.619-2.478-.082-4.149.9-7.986,4.357-10.748C67.435.172,71.646-.277,76.025.128a1.471,1.471,0,0,1,1,1.008c.112,1.564.046,3.138.046,4.778-1.686.082-3.134.064-4.556.24-3.97.491-7.082,5.619-5.618,9.318.164.413,1.077.732,1.65.75,2.541.08,5.085.036,7.69.036v5.5c-2.5,0-4.909.072-7.311-.024-1.556-.061-2.2.357-2.182,2.071q.123,12.151.01,24.3c-.012,1.5.365,2.222,1.965,2.053a22.871,22.871,0,0,1,2.49-.014c2.8,0,2.8,0,2.791,2.839,0,2.687,0,2.693-2.757,2.695-1.552,0-3.1-.008-4.654-.014-3.641-.018-7.285-.036-10.922.061l-.227,0C53.579,55.73,52.908,55.061,53.162,53.152Zm-26.478.423c.112-1.071.02-2.164.02-3.485h6.037c.076-.74.188-1.329.188-1.923.01-8.095-.03-16.191.038-24.288.012-1.592-.4-2.35-2.085-2.131a14.81,14.81,0,0,1-1.867.01c-2.725,0-2.725,0-2.725-2.7,0-2.8,0-2.8,2.831-2.8,3.587,0,7.174,0,10.986,0,.048.984.124,1.78.126,2.579.006,9.617.052,19.237-.032,28.856-.018,1.877.489,2.735,2.432,2.458a8.541,8.541,0,0,1,1.243-.008c2.7.006,2.7.006,2.7,2.721,0,2.807,0,2.811-2.841,2.813q-2.25,0-4.5-.008c-3.483-.01-6.966-.02-10.449.04h-.121C27.122,55.714,26.52,55.176,26.684,53.575ZM32.828,3.839c.022-3.4-.4-3.381,2.508-3.365.391,0,.846,0,1.37,0s.97,0,1.359,0C41.023.461,40.5.447,40.51,4.317c0,3.605.523,3.591-2.607,3.577-.315,0-.664,0-1.055,0l-.707,0C32.817,7.9,32.8,7.645,32.828,3.839Z" transform="translate(218.426 20.491)"/></svg>