<svg xmlns="http://www.w3.org/2000/svg" width="107" height="107" viewBox="0 0 107 107"><defs><style>.a{fill:#f9fafc;}.b{fill:#634496;}</style></defs><ellipse class="a" cx="53" cy="53.5" rx="53" ry="53.5" transform="translate(0 0)"/><g transform="translate(11.017 24.244)"><path class="b" d="M446.236,502.313c-.661.817-1.24,1.521-1.805,2.238-2.762,3.51-5.774,6.451-10.485,7.374-2.205.434-4.264,2.031-6.2,3.377-4.4,3.064-7.119,7.591-9.784,12.114a26.074,26.074,0,0,0-1.324,3.038c1.24.5,2.528,1.5,3.708,1.382,1.606-.158,3.611-.748,4.594-1.894a10.8,10.8,0,0,1,7.347-3.734c3.553-.449,5.612.886,6.307,4.5a16.7,16.7,0,0,1-2.58,12.912,24.421,24.421,0,0,1-11,9.156c-2.42,1.018-4.507,2.988-6.494,4.806a3.1,3.1,0,0,0-.259,2.983c.387.613,1.9.847,2.836.707a36.593,36.593,0,0,0,19.169-8.5c5.166-4.45,8.535-9.387,9.557-16.1,1.041-6.831,2.258-13.626,5.871-19.687.974-1.634,1.893-3.3,2.873-5.015C454.393,508.7,450.365,505.545,446.236,502.313Z" transform="translate(-374.393 -502.313)"/><path class="b" d="M430.173,554.812a75.556,75.556,0,0,0-7.019-3.722c-7.207-3.441-12-12.573-10.635-20.386.6-3.445,2.779-5.058,6.258-4.64a10.324,10.324,0,0,1,7.348,3.717,5.56,5.56,0,0,0,8.771-.087c-1.848-2.828-3.595-5.744-5.578-8.483-2.73-3.77-5.932-7.454-10.4-8.693-5.918-1.64-10.167-5.063-13.694-9.806-.09-.119-.329-.123-.675-.242l-11.9,9.371c.331.661.467,1,.659,1.306a45.787,45.787,0,0,1,7.364,20.011c.911,9.019,4.669,16.364,12.625,21.143.7.419,1.212,1.167,1.925,1.549a55.7,55.7,0,0,0,7.276,3.61,43.845,43.845,0,0,0,7.736,1.723c.875.142,2.371-.043,2.653-.577a3.759,3.759,0,0,0-.129-3.033A7.417,7.417,0,0,0,430.173,554.812Z" transform="translate(-392.653 -502.191)"/><path class="b" d="M435.911,530.28c1.212-4.357-.356-8.234-3.9-9.74-3.831-1.631-6.735-.409-9.3,3.987-.291-.2-.477-.267-.535-.389-2.136-4.546-5.976-4.882-9.141-3.548-3.352,1.414-4.912,5.205-3.884,9.348,1.129,4.553,4.192,7.739,7.8,10.32,6.45,4.61,4.881,4.525,11.153.066C431.654,537.8,434.684,534.705,435.911,530.28Z" transform="translate(-380.332 -488.697)"/></g></svg>