<svg xmlns="http://www.w3.org/2000/svg" width="109" height="107" viewBox="0 0 109 107"><defs><style>.a{fill:#f9fafc;}.b{fill:#634496;}</style></defs><circle class="a" cx="53.5" cy="53.5" r="53.5" transform="translate(0 0)"/><g transform="translate(29.417 25.359)"><path class="b" d="M-764.55,967.227a14.013,14.013,0,0,0,14.05-13.983,13.982,13.982,0,0,0-13.972-14.108,13.983,13.983,0,0,0-14.1,14.03A14.012,14.012,0,0,0-764.55,967.227Z" transform="translate(789.138 -939.136)"/><path class="b" d="M-832.26,1260.988a12.545,12.545,0,0,0-1.156-4.96,14.552,14.552,0,0,0-9.862-8.441c-.945-.259-1.938-.342-2.946-.513-.023.227-.044.342-.045.457,0,1.455.016,2.91-.013,4.365-.01.457.117.643.58.755a8.752,8.752,0,0,1,6.454,8.087c.025,1.626.014,3.252.006,4.879a1.751,1.751,0,0,1-1.46,1.79c-1.122.238-2.249.453-3.375.667a.894.894,0,0,1-1.169-.764c-.123-.532-.221-1.071-.3-1.612a.876.876,0,0,1,.737-1.054c.315-.078.637-.129.957-.189,1.1-.207,1.119-.206,1.1-1.314a18.558,18.558,0,0,0-.159-3.323c-.513-2.5-2.534-3.934-5.283-3.939a4.845,4.845,0,0,0-4.879,3.9,26.224,26.224,0,0,0-.205,4.239c0,.095.2.251.334.284.531.133,1.072.221,1.606.341.695.155.923.478.819,1.171q-.105.709-.255,1.412a.968.968,0,0,1-1.256.874c-1.019-.132-2.037-.267-3.053-.416a1.817,1.817,0,0,1-1.723-1.988c-.007-1.113-.023-2.226,0-3.338a16.151,16.151,0,0,1,.173-2.81,8.506,8.506,0,0,1,6.468-6.946.456.456,0,0,0,.393-.537c-.015-.958-.006-1.917-.006-2.876v-1.646c-.324.086-.565.163-.811.214-1.638.34-3.263.8-4.919.981a17.528,17.528,0,0,1-7.237-.892c-.9-.287-1.836-.474-2.779-.713a2.3,2.3,0,0,0-.058.306c0,2.791-.009,5.581.01,8.371,0,.14.186.319.33.41a19.893,19.893,0,0,1,1.912,1.176,5.969,5.969,0,0,1,1.841,6.5,6.2,6.2,0,0,1-5.468,4.235,6.2,6.2,0,0,1-6.389-4.79,6.134,6.134,0,0,1,3.834-7.078.556.556,0,0,0,.426-.626c-.013-2.6-.006-5.2-.008-7.806,0-.15-.018-.3-.027-.437-.063-.022-.095-.044-.124-.041-.1.01-.2.025-.3.044a14.152,14.152,0,0,0-6.026,2.72,14.162,14.162,0,0,0-5.742,10.414c-.178,2.245-.042,4.515-.043,6.774a1.758,1.758,0,0,0,.067.4,4.9,4.9,0,0,0,5.076,3.919q16.768,0,33.536,0c1.9,0,3.8.034,5.7-.015a4.811,4.811,0,0,0,4.733-4.625C-832.175,1265-832.228,1262.991-832.26,1260.988Z" transform="translate(881.409 -1215.439)"/><path class="b" d="M-769.985,1369.18a2.621,2.621,0,0,0,2.615,2.616,2.656,2.656,0,0,0,2.626-2.667,2.648,2.648,0,0,0-2.629-2.606A2.612,2.612,0,0,0-769.985,1369.18Z" transform="translate(781.432 -1322.617)"/></g></svg>