<svg xmlns="http://www.w3.org/2000/svg" width="151" height="151" viewBox="0 0 151 151"><defs><style>.a{fill:#f9fafc;}.b{fill:none;stroke:#fff;stroke-miterlimit:3.864;stroke-width:4px;}.c{fill:#634496;}.d{fill:#fff;}</style></defs><circle class="a" cx="75.5" cy="75.5" r="75.5"/><g transform="translate(12.133 22.788)"><path class="b" d="M69.726,35.367V46.623l-10.378.045V29.324ZM39.236,46.792l-9.6.036v21h9.639v4.8l-4.548-2.27L18.035,83.476l24.5,11.185L59.367,82.617l-.011-14.826,10.381,0V82.512L87.306,94.588l11.95-18.444-9.714-6.5V25.77L66.588,11.212,39.236,23.547V46.792Z" transform="translate(-0.142 0)"/><path class="c" d="M39.122,23.588,66.41,11.236,89.362,25.742V69.686l9.77,6.462L87.158,94.6,69.569,82.561V67.82H59.229V82.61l-16.8,12.063L17.867,83.47,34.576,70.357l4.546,2.321V67.819H29.5V46.852h9.624V23.588m20.121,5.766V46.709H69.569V35.362Z" transform="translate(0 -0.02)"/><path class="d" d="M132.328,207.874c.369.3.72.583,1.067.842l.019-.131h.872v.776c.292.206.581.379.853.557l.005-1.333h.872l.013,1.92c2.28,1.468,3.6,2.3,3.476,4.675-.212,2.9-3.5,3.794-3.48,3.777l-.009,2h-.872v-7.727c-.259-.174-.542-.362-.845-.551l-.013,8.278h-.872l0-.845a6.016,6.016,0,0,0-2.518,2.364c-.5-3.177.8-3.95,2.524-4.855l0-5.483a19.7,19.7,0,0,1-6.251-5.741,21.858,21.858,0,0,1-5.8-3.673l27.12.005c-3.564,3.518-8.244,5.274-13.808,5.27a17.357,17.357,0,0,1-2.345-.122m-6.124-6.967-6.628-.006c.23.266.579.63.827.895l29.03-.01c.248-.279.544-.594.774-.891l-21.082.005c0-4.854,2.7-7.622,6.313-7.64,3.191.1,4.473,2,6.161,5.295.242.473.529.336.324-.184-.132-.328-.7-1.655-.533-1.965l.264-.053a6.511,6.511,0,0,1,.887,1.684c.512,1.642,2.224-2.263-1.474-5.411a8.94,8.94,0,0,0-5.683-2.207c-4.14,0-9.185,2.44-9.181,10.487m13.2,23.014-9.327-.006a4.864,4.864,0,0,0-.562.859L140,224.78a3.72,3.72,0,0,0-.6-.858m-8.39-.881,7.481,0a6.608,6.608,0,0,0-3.815-1.273,5.487,5.487,0,0,0-3.665,1.27m10.668-27.516a.491.491,0,1,1,.72.3.564.564,0,0,1-.72-.3m-13.375,5.422h-1.187s-.379-6.51,4.633-8.911a7.986,7.986,0,0,1,8.608,1.123l-.735.945a6.31,6.31,0,0,0-7.348-.928c-4.293,2.245-3.971,7.772-3.971,7.772m5.107,17.6a3.52,3.52,0,0,0-1.6,1.509,10.562,10.562,0,0,1,1.59-.868h.011l-.006-.641m2.6-2.4a1.246,1.246,0,0,0,.549-1.614,2.339,2.339,0,0,0-.536-.649l-.013,2.262m-5.276-8.59a19.513,19.513,0,0,1-2.117-.595c4.792,5.6,8.266,5.059,8.857,7.694a2.214,2.214,0,0,1-1.431,2.482l-.026.892a3.827,3.827,0,0,0,2.526-2.475c.677-3.537-2.989-3.412-7.809-8" transform="translate(-85.822 -151.215)"/></g></svg>