<svg xmlns="http://www.w3.org/2000/svg" width="108" height="108.001" viewBox="0 0 108 108.001"><defs><style>.a{fill:#f9fafc;}.b{fill:#1d3463;stroke:rgba(0,0,0,0);stroke-miterlimit:10;}.c{fill:#cb1d3c;}</style></defs><circle class="a" cx="54" cy="54" r="54" transform="translate(0 0.001)"/><g transform="translate(6.072 33.394)"><path class="b" d="M33.248,35.841c-1.682-1.682-3.385-3.344-5.035-5.056a1.052,1.052,0,0,0-1.615-.138c-6.115,4.121-12.449,4.251-18.7.525A15.7,15.7,0,0,1,.042,18.014,16.361,16.361,0,0,1,4.778,5.032C8.049,1.67,12.125.049,17.344,0A16.675,16.675,0,0,1,33.451,13.941,16.349,16.349,0,0,1,30.9,26.189a1.159,1.159,0,0,0,.187,1.775C33,29.812,34.869,31.712,36.748,33.6c1.03,1.035,1.023,1.219.02,2.229-.88.887-1.319,1.33-1.76,1.33S34.128,36.721,33.248,35.841ZM16.9,5.117a11.643,11.643,0,0,0-11.832,11.8,11.631,11.631,0,0,0,11.8,11.733A11.6,11.6,0,0,0,28.581,16.817a11.66,11.66,0,0,0-11.641-11.7ZM46.1,33.938c-.878-.029-1.291-.45-1.286-1.383.028-4.312.013-8.626.013-12.938q0-6.184,0-12.369c0-1.678,0-1.677-1.635-1.677-2.6,0-5.2.007-7.8,0-1.288-.005-1.552-.255-1.606-1.558-.036-.886-.032-1.776,0-2.663C33.817.3,34.134,0,35.173,0Q47.3,0,59.435,0c1.12,0,1.319.2,1.346,1.337.022.918.017,1.84,0,2.758-.016,1.2-.254,1.462-1.453,1.469-2.727.015-5.454,0-8.182,0-1.42,0-1.422,0-1.422,1.416q0,12.7,0,25.4c0,1.308-.233,1.552-1.535,1.568q-.339.005-.678.005Q46.806,33.963,46.1,33.938Z" transform="translate(34.149 1.798)"/><path class="c" d="M376.448,581.094l2.392,3.529c-.2.219-.392.456-.609.672q-3.369,3.361-6.744,6.717c-2.658,2.635-5.932,2.719-8.6.093-4.97-4.9-9.927-9.817-14.8-14.815a14.519,14.519,0,0,1-2.757-16.234,14.719,14.719,0,0,1,14.527-8.463,14.18,14.18,0,0,1,6.529,2.18,1.217,1.217,0,0,0,1.518.006,14.534,14.534,0,0,1,14.026-.82c.2.086.369.225.138-.011-.794,1.03-1.574,2.072-2.4,3.077a.809.809,0,0,1-.685.086c-4.427-1.327-8.185-.169-11.4,3.031a5.143,5.143,0,0,1-.432.343c-.507-.431-1.012-.855-1.51-1.285-4.035-3.481-10.279-3.455-13.962-.054a10.662,10.662,0,0,0-1.36,14.6,17.226,17.226,0,0,0,1.293,1.395q6.931,6.934,13.871,13.859c1.312,1.31,2.014,1.3,3.356-.034q3.475-3.458,6.938-6.927A7.369,7.369,0,0,0,376.448,581.094Z" transform="translate(-343.978 -552.541)"/></g></svg>