<svg xmlns="http://www.w3.org/2000/svg" width="110" height="110" viewBox="0 0 110 110"><defs><style>.a{fill:#f9fafc;}.b{fill:#004390;}.c{fill:#c2051d;}.d{fill:#1a1818;}</style></defs><g transform="translate(0 0)"><g transform="translate(0 -0.001)"><g transform="translate(0 0.001)"><circle class="a" cx="55" cy="55" r="55" transform="translate(0 0)"/><g transform="translate(8.316 34.304)"><path class="b" d="M112.471,418.131a9.819,9.819,0,0,1-.854-.547,41.928,41.928,0,0,0-15.178-8.051,30.83,30.83,0,0,0-21.176,1.881c-2.709,1.22-5.259,2.8-7.865,4.244a1.982,1.982,0,0,1-1.953.248,1.51,1.51,0,0,1-.349-2.612,35.505,35.505,0,0,1,15.5-7.273,32.837,32.837,0,0,1,8.394-.553,31.34,31.34,0,0,1,15.918,5.544,43.745,43.745,0,0,1,7.239,6.249c.18.192.33.412.494.619Z" transform="translate(-64.49 -405.404)"/><path class="c" d="M209.183,477.615q.685.521,1.37,1.042a22.477,22.477,0,0,0,9.367,4.485,16.449,16.449,0,0,0,10.443-1.3c1.9-.913,3.657-2.123,5.474-3.207.42-.25.793-.6,1.347-.3.724.4.8,1.136.113,1.766a19.541,19.541,0,0,1-7.6,4.438c-6.694,2.024-12.676.559-17.985-3.9-.813-.684-1.561-1.448-2.319-2.2a3.238,3.238,0,0,1-.408-.657Z" transform="translate(-143.317 -444.798)"/><g transform="translate(6.2 14.227)"><path class="d" d="M88.879,457.692v-5.763a4.187,4.187,0,0,0-1.133-3.33,5.722,5.722,0,0,0-3.826-1.133q-4.133,0-5.2,3.471l2.834.52a2.176,2.176,0,0,1,2.315-1.771q1.937,0,1.936,1.819v.968l-.8.166-1.37.259a13.884,13.884,0,0,0-1.606.449q-.827.283-1.346.5a4.674,4.674,0,0,0-1.89,1.559,3.728,3.728,0,0,0-.661,2.149,3.556,3.556,0,0,0,1.095,2.681,3.9,3.9,0,0,0,2.814,1.051,5.765,5.765,0,0,0,3.909-1.724l.285,1.394h3a8.245,8.245,0,0,1-.307-1.382Q88.878,459.085,88.879,457.692Zm-3.07-.614a.981.981,0,0,1-.294.579,4.813,4.813,0,0,1-.81.72,3.359,3.359,0,0,1-1.9.684,1.456,1.456,0,0,1-1.551-1.535q0-1.511,2.232-2.2l.893-.236.8-.165.634-.142Z" transform="translate(-78.133 -442.577)"/><path class="d" d="M115.571,458.538q-.827-.213-1.346-.3a10.809,10.809,0,0,0-1.558-.082l-1.347-.071a6.829,6.829,0,0,1-2.066-.212q-.579-.213-.579-.661,0-.567.945-.9a5.987,5.987,0,0,0,.862.213q.225.024.815.023a5.231,5.231,0,0,0,3.637-1.275,4.189,4.189,0,0,0,1.417-3.259,4.122,4.122,0,0,0-.826-2.6,3.848,3.848,0,0,1,.449-.26,2.2,2.2,0,0,1,.779-.118,2.231,2.231,0,0,1,.968.213V446.99a3.62,3.62,0,0,0-.705-.095,2.85,2.85,0,0,0-2.515,1.346,5.013,5.013,0,0,0-3.25-1.015,5.474,5.474,0,0,0-3.807,1.334A4.411,4.411,0,0,0,105.959,452a3.722,3.722,0,0,0,1.322,3.118,2.719,2.719,0,0,0,.874.378q-2.2.992-2.2,2.575a1.987,1.987,0,0,0,1.37,1.913,2.293,2.293,0,0,0-.259,4.463,10.891,10.891,0,0,0,4.558.779,9.331,9.331,0,0,0,4.629-.944,2.962,2.962,0,0,0,1.629-2.692,3.033,3.033,0,0,0-.626-1.9A3.3,3.3,0,0,0,115.571,458.538Zm-6.542-6.637a2.856,2.856,0,0,1,.573-1.889,1.945,1.945,0,0,1,1.576-.685,1.875,1.875,0,0,1,1.552.685,2.9,2.9,0,0,1,.549,1.866,2.983,2.983,0,0,1-.549,1.913,1.85,1.85,0,0,1-1.529.685,2.018,2.018,0,0,1-1.576-.661,2.539,2.539,0,0,1-.6-1.771Zm5.408,10.994a8.489,8.489,0,0,1-2.645.319,9.656,9.656,0,0,1-2.917-.342q-1.027-.343-1.027-.957,0-.828,1.039-1.3l1.019.141q.427.048,1.078.095t1.316.047q.924,0,1.351.035a4.513,4.513,0,0,1,.782.13q.924.189.924.921Q115.359,462.576,114.437,462.9Z" transform="translate(-93.017 -442.266)"/><path class="d" d="M160.167,449.849q0,.78.047,1.335t.189,1.334l-.708-1.677-.354-.756-5.692-10.415h-3.8V456.7h3.07V445.622a5.124,5.124,0,0,0-.078-.8q-.078-.473-.182-.921l.733,1.582.449.779,5.715,10.439h3.826V439.671h-3.212Z" transform="translate(-117.255 -438.325)"/><path class="d" d="M190.106,447.466a5.3,5.3,0,0,0-4.286,1.875,8.967,8.967,0,0,0,0,10.138,5.325,5.325,0,0,0,4.286,1.851,5.389,5.389,0,0,0,4.346-1.839,9.052,9.052,0,0,0-.012-10.173A5.379,5.379,0,0,0,190.106,447.466Zm0,11.643q-2.669,0-2.669-4.711t2.669-4.711q2.668,0,2.669,4.711T190.106,459.109Z" transform="translate(-136.024 -442.577)"/><path class="d" d="M222.56,447.466h-.544q-2.337,0-4.227,3.117v-2.74h-3.141v13.108h3.07v-5.975a4.615,4.615,0,0,1,1.169-3.224,3.779,3.779,0,0,1,2.917-1.287,4.047,4.047,0,0,1,.756.071Z" transform="translate(-152.607 -442.577)"/><path class="d" d="M242.708,453.56q-.024-.508-.024-1.618V436.709h-3.07v6.376a4.4,4.4,0,0,0-6.955.465,8.949,8.949,0,0,0-1.382,5.263,7.807,7.807,0,0,0,1.346,4.826,4.3,4.3,0,0,0,3.613,1.774,4.473,4.473,0,0,0,3.613-1.818l.307,1.488h2.693Q242.731,454.067,242.708,453.56Zm-3.094-2.023a3.029,3.029,0,0,1-2.539,1.61q-2.727,0-2.727-4.427a7.051,7.051,0,0,1,.728-3.552,2.287,2.287,0,0,1,2.069-1.232,2.778,2.778,0,0,1,2.469,1.539Z" transform="translate(-161.679 -436.709)"/><rect class="d" width="3.181" height="3.181" transform="translate(6.664 0.807)"/><rect class="d" width="3.181" height="3.181" transform="translate(1.895 0.807)"/></g></g></g></g></g></svg>