<svg xmlns="http://www.w3.org/2000/svg" width="537.504" height="74.53" viewBox="0 0 537.504 74.53"><defs><style>.a,.e{fill:#0063b0;}.a{stroke:rgba(0,0,0,0);stroke-miterlimit:10;}.b{fill:#fff;}.c{fill:#cb223c;}.d{fill:#443282;}</style></defs><path class="a" d="M329.571,64.859a1.99,1.99,0,0,1,1.99-2.059c7.886,0,14-6.839,14-15.368v-.955a18.575,18.575,0,0,1-32.727-11.84V18.6a2.059,2.059,0,0,1,1.918-1.91,1.9,1.9,0,0,1,2.063,1.91V34.636a14.374,14.374,0,1,0,28.746,0V18.6a2.13,2.13,0,0,1,1.99-1.91,2.069,2.069,0,0,1,1.99,1.91l.369,28.828c0,10.884-8.477,19.34-18.353,19.34A1.737,1.737,0,0,1,329.571,64.859Zm74.675-13.308v-5a18.3,18.3,0,0,1-14.3,6.912,18.385,18.385,0,1,1,18.572-18.6V51.551a2.05,2.05,0,0,1-2.137,2.278A2.266,2.266,0,0,1,404.246,51.551Zm-28.6-16.694a14.311,14.311,0,0,0,28.6,1.1v-1.1a14.3,14.3,0,0,0-28.6,0ZM283.822,51.551v-5a18.291,18.291,0,0,1-14.3,6.912,18.385,18.385,0,1,1,18.573-18.6V51.551a2.051,2.051,0,0,1-2.138,2.278A2.266,2.266,0,0,1,283.822,51.551Zm-28.6-16.694a14.311,14.311,0,0,0,28.6,1.1v-1.1a14.3,14.3,0,0,0-28.6,0ZM94.1,51.551v-5a18.293,18.293,0,0,1-14.3,6.912,18.385,18.385,0,1,1,18.572-18.6V51.551a2.05,2.05,0,0,1-2.137,2.278A2.266,2.266,0,0,1,94.1,51.551ZM65.5,34.857a14.311,14.311,0,0,0,28.6,1.1v-1.1a14.3,14.3,0,0,0-28.6,0Zm77.452,16.619-.073-31.033a14.209,14.209,0,0,0-14.521,14.045l.074,16.767a2.18,2.18,0,0,1-2.359,1.986,2.015,2.015,0,0,1-1.915-1.986V34.489c0-10.221,7.959-18.235,20.638-18.235,12.75,0,21.008,6.912,21.008,18.235V51.256a2.083,2.083,0,0,1-1.99,1.986,2.156,2.156,0,0,1-2.286-1.986V34.489A14.409,14.409,0,0,0,147.3,20.3l.073,31.032a2.317,2.317,0,0,1-2.137,2.354A2.581,2.581,0,0,1,142.949,51.476ZM0,51.476V34.709A18.2,18.2,0,0,1,18.5,16.545,18.2,18.2,0,0,1,37,34.709V51.181a2.138,2.138,0,0,1-1.99,1.986,2.208,2.208,0,0,1-2.286-1.986V34.709A14.076,14.076,0,0,0,18.5,20.517,14.077,14.077,0,0,0,4.277,34.709l-.3,16.767a1.892,1.892,0,0,1-1.99,1.986A2.083,2.083,0,0,1,0,51.476ZM191.019,34.931V1.986A1.874,1.874,0,0,1,193.082,0C194.336,0,195,.59,195,1.986V23.238a19.613,19.613,0,0,1,14.591-6.62,18.422,18.422,0,1,1-18.574,18.312Zm3.983,0A14.455,14.455,0,0,0,209.593,49.2a14.34,14.34,0,1,0,0-28.679A14.486,14.486,0,0,0,195,34.931Z" transform="translate(128.484 4.075)"/><g transform="translate(0 0)"><path class="b" d="M377.443,303.65c-1.127-3.568-3.138-6.263-6.051-7.7-8.493-4.2-21.915,3.559-32.483,17.827-7.956-10.949-17.764-17.738-25.677-17.805h-.166c-.25,0-.5.007-.741.022s-.49.032-.736.056c-.024,0-.05.007-.073.009-9.645,1.008-21.673,11.579-29.732,27.2-4.872,9.439-7.4,18.989-7.586,26.938v.028c-.009.384-.015.769-.013,1.145s.009.762.022,1.136l0,.108a29.408,29.408,0,0,0,.425,4.133l.015.1c.054.3.114.587.177.875.052.242.106.479.162.715l.037.14c1.114,4.444,3.334,7.818,6.675,9.541,7.48,3.861,18.432-1.6,27.713-12.707,1.412-1.6,2.792-3.33,4.12-5.168,6.6,8.992,14.454,15.128,21.427,16.957,10.031,3.386,25.422-7.589,35.477-25.759,7.871-14.223,10.266-28.869,7.008-37.779" transform="translate(-274.183 -294.809)"/><path class="c" d="M334.991,296.891c-7.908-4.017-20.481,3.589-30.231,17.445A72.656,72.656,0,0,1,308.787,321c8.988,16.834,10.066,34.254,3.129,41.454,7.5-3.948,15.594-12.437,21.651-23.6,10.029-18.483,10.666-37.273,1.423-41.968" transform="translate(-238.728 -293.637)"/><path class="d" d="M327.341,321.329c9.718,18.056,10.316,36.61,1.335,41.446s-24.139-5.887-33.857-23.943-10.314-36.611-1.335-41.444,24.139,5.885,33.857,23.941" transform="translate(-259.181 -293.163)"/><path class="e" d="M281.679,363.2c7.731,3.915,19.844-3.851,29.13-17.827a73.262,73.262,0,0,1-4-6.619c-8.949-16.715-10.225-34.121-3.58-41.407-7.232,4.041-14.983,12.633-20.719,23.871-9.5,18.609-9.869,37.405-.831,41.981" transform="translate(-273.077 -291.86)"/></g></svg>