<svg xmlns="http://www.w3.org/2000/svg" width="106" height="106" viewBox="0 0 106 106"><defs><style>.a{fill:#eff1f5;}.b{fill:#634496;}</style></defs><circle class="a" cx="53" cy="53" r="53"/><g transform="translate(-381.653 -478.313)"><path class="b" d="M446.191,502.313c-.659.809-1.238,1.505-1.8,2.216-2.758,3.475-5.765,6.386-10.469,7.3-2.2.429-4.258,2.01-6.19,3.343-4.4,3.034-7.109,7.515-9.769,11.992a25.717,25.717,0,0,0-1.323,3.007c1.238.5,2.524,1.483,3.7,1.368,1.6-.156,3.605-.74,4.587-1.875a10.816,10.816,0,0,1,7.335-3.7c3.547-.445,5.6.878,6.3,4.455a16.419,16.419,0,0,1-2.576,12.782A24.335,24.335,0,0,1,425,552.27c-2.416,1.008-4.5,2.958-6.484,4.757a3.047,3.047,0,0,0-.259,2.953c.387.607,1.9.839,2.832.7a36.689,36.689,0,0,0,19.14-8.417c5.158-4.405,8.522-9.293,9.542-15.937,1.039-6.762,2.255-13.489,5.862-19.49.973-1.618,1.891-3.269,2.868-4.965C454.336,508.634,450.314,505.512,446.191,502.313Z" transform="translate(18.196)"/><path class="b" d="M430.116,554.286a75.684,75.684,0,0,0-7.008-3.684c-7.2-3.407-11.983-12.446-10.619-20.181.6-3.41,2.775-5.007,6.248-4.594a10.338,10.338,0,0,1,7.337,3.679,5.581,5.581,0,0,0,8.758-.086c-1.845-2.8-3.589-5.686-5.57-8.4-2.726-3.732-5.923-7.379-10.385-8.605-5.909-1.623-10.151-5.012-13.674-9.708-.09-.118-.329-.121-.674-.239l-11.878,9.277c.331.654.466.992.658,1.293a45.086,45.086,0,0,1,7.353,19.81c.909,8.929,4.662,16.2,12.606,20.93.7.415,1.21,1.155,1.922,1.534a55.821,55.821,0,0,0,7.265,3.574,44.114,44.114,0,0,0,7.724,1.706c.874.141,2.367-.042,2.648-.572a3.692,3.692,0,0,0-.128-3A7.368,7.368,0,0,0,430.116,554.286Z" transform="translate(0 0.119)"/><path class="b" d="M435.87,530.175c1.21-4.314-.355-8.151-3.894-9.643-3.825-1.615-6.725-.4-9.287,3.946-.29-.2-.477-.264-.535-.385-2.133-4.5-5.967-4.833-9.127-3.512-3.347,1.4-4.9,5.153-3.878,9.254,1.127,4.508,4.186,7.661,7.791,10.216,6.44,4.564,4.873,4.479,11.136.065C431.619,537.62,434.644,534.556,435.87,530.175Z" transform="translate(12.278 13.303)"/></g></svg>