<svg xmlns="http://www.w3.org/2000/svg" width="106" height="106" viewBox="0 0 106 106"><defs><style>.a{fill:#eff1f5;}.b{fill:#004992;}.c{fill:#fff;}.d{fill:#878787;}</style></defs><circle class="a" cx="53" cy="53" r="53"/><g transform="translate(20 18.318)"><path class="b" d="M66.818,31.086V26.409H58.466V-.318H0V58.149H58.466V48.125h8.352V43.448H58.466V39.606h7.518V34.929H58.466V31.086Z" transform="translate(0 0)"/><path class="c" d="M25.5,49.309c-6.8,0-8.248-3.722-8.248-7.7V27.326h3.5V41.35c0,2.889.963,5.07,4.975,5.07,3.531,0,5.135-1.476,5.135-5.52V27.326H34.29V40.645c0,5.776-3.114,8.664-8.794,8.664Z" transform="translate(-0.545 -0.874)"/><path class="c" d="M50.879,48.989,43.017,38.4v10.59h-3.5V27.326h3.5V37.371l7.894-10.045h4.3l-8.6,10.462,8.922,11.2Z" transform="translate(-1.249 -0.874)"/><path class="d" d="M3.9,72.729V69.966H.678v2.763H0V66.864H.678V69.41H3.9V66.864h.669v5.865Z" transform="translate(0 -2.124)"/><path class="d" d="M11.684,68.377c-.1-.287-.185-.547-.256-.79h-.017c-.071.243-.159.5-.246.774l-.88,2.4h2.278l-.878-2.381Zm1.574,4.352-.509-1.443H10.1l-.528,1.443h-.7l2.2-5.865h.748l2.2,5.865Z" transform="translate(-0.281 -2.124)"/><path class="d" d="M24.194,72.729l-.528-3.623c-.1-.668-.158-1.163-.194-1.485h-.017a9.24,9.24,0,0,1-.291,1l-1.4,4.109H21.02l-1.328-3.849c-.159-.46-.282-.886-.379-1.259h-.009c-.035.461-.088.955-.158,1.547l-.431,3.562h-.694l.844-5.865h.853l1.363,3.97c.1.287.237.739.334,1.138h.009c.114-.4.211-.729.325-1.077l1.39-4.03h.88l.879,5.865h-.706Z" transform="translate(-0.57 -2.124)"/><path class="d" d="M30.909,69.947c-.106,0-.431,0-.571.009v2.215c.159.018.536.045.809.045,1.056,0,1.5-.513,1.5-1.174,0-.808-.694-1.094-1.741-1.094Zm.273-2.58c-.291,0-.6.01-.844.017v2.05c.176.009.334.009.563.009,1.056,0,1.566-.408,1.566-1.1,0-.557-.291-.973-1.284-.973Zm-.106,5.385c-.431,0-.906-.018-1.416-.025V66.863c.4-.008.933-.026,1.644-.026,1.267,0,1.864.54,1.864,1.391A1.44,1.44,0,0,1,32.1,69.618v.018A1.331,1.331,0,0,1,33.354,71c0,.747-.5,1.754-2.278,1.754Z" transform="translate(-0.938 -2.123)"/><path class="d" d="M40.2,72.806c-1.837,0-2.19-1.016-2.19-2.024V66.864h.677V70.72c0,.842.282,1.539,1.566,1.539,1.09,0,1.628-.452,1.628-1.7V66.864h.659V70.5a2.073,2.073,0,0,1-2.34,2.3Z" transform="translate(-1.202 -2.124)"/><path class="d" d="M48.8,67.368c-.22,0-.4.01-.571.026V69.5c.1.009.272.017.536.017.914,0,1.442-.461,1.442-1.112,0-.765-.493-1.043-1.407-1.043Zm1.618,5.36-2.084-2.711h-.1v2.711h-.678V66.863c.379-.017.765-.026,1.4-.026,1.117,0,1.961.383,1.961,1.477a1.736,1.736,0,0,1-1.855,1.66c.176.2.378.417.528.608l1.705,2.146Z" transform="translate(-1.504 -2.123)"/><path class="d" d="M58.263,72.8a2.672,2.672,0,0,1-2.928-2.884,2.907,2.907,0,0,1,3.149-3.136,5.65,5.65,0,0,1,1.627.252l-.148.608a4.358,4.358,0,0,0-1.557-.3,2.237,2.237,0,0,0-2.357,2.467A2.166,2.166,0,0,0,58.37,72.23a3.666,3.666,0,0,0,1.151-.174V69.771H60.2v2.7a5.891,5.891,0,0,1-1.935.33Z" transform="translate(-1.75 -2.122)"/></g></svg>