<svg xmlns="http://www.w3.org/2000/svg" width="106" height="106" viewBox="0 0 106 106"><defs><style>.a{fill:#eff1f5;}.b{fill:#004390;}.c{fill:#c2051d;}.d{fill:#1a1818;}</style></defs><circle class="a" cx="53" cy="53" r="53"/><g transform="translate(-56.49 -372.404)"><path class="b" d="M110.647,417.647a9.448,9.448,0,0,1-.821-.526,40.334,40.334,0,0,0-14.6-7.745,29.658,29.658,0,0,0-20.372,1.809c-2.606,1.174-5.06,2.691-7.566,4.083a1.906,1.906,0,0,1-1.879.238,1.453,1.453,0,0,1-.336-2.513,34.156,34.156,0,0,1,14.911-7,31.589,31.589,0,0,1,8.075-.532,30.149,30.149,0,0,1,15.313,5.333,42.086,42.086,0,0,1,6.964,6.011c.174.185.318.4.476.6Z" transform="translate(0 0)"/><path class="c" d="M209.175,477.615q.659.5,1.318,1a21.623,21.623,0,0,0,9.011,4.314,15.824,15.824,0,0,0,10.047-1.249c1.827-.878,3.518-2.043,5.266-3.085.4-.241.762-.576,1.3-.285.7.38.767,1.093.108,1.7a18.8,18.8,0,0,1-7.312,4.269c-6.44,1.947-12.194.538-17.3-3.755-.783-.658-1.5-1.393-2.231-2.112a3.114,3.114,0,0,1-.393-.632Z" transform="translate(-81.323 -40.641)"/><g transform="translate(70.454 419.09)"><path class="d" d="M88.47,457.3v-5.544a4.028,4.028,0,0,0-1.09-3.2,5.5,5.5,0,0,0-3.681-1.09q-3.976,0-5,3.339l2.726.5a2.094,2.094,0,0,1,2.227-1.7q1.863,0,1.863,1.75v.931l-.772.16-1.318.25a13.354,13.354,0,0,0-1.545.432q-.8.273-1.295.477a4.5,4.5,0,0,0-1.818,1.5,3.586,3.586,0,0,0-.636,2.067,3.421,3.421,0,0,0,1.053,2.579,3.749,3.749,0,0,0,2.708,1.011,5.546,5.546,0,0,0,3.761-1.659l.274,1.341h2.883a7.931,7.931,0,0,1-.3-1.329Q88.47,458.644,88.47,457.3Zm-2.954-.591a.944.944,0,0,1-.282.557,4.631,4.631,0,0,1-.78.693,3.231,3.231,0,0,1-1.831.658,1.4,1.4,0,0,1-1.492-1.476q0-1.454,2.147-2.113l.859-.227.769-.159.61-.137Z" transform="translate(-78.133 -442.763)"/><path class="d" d="M115.185,458.1q-.8-.2-1.295-.284a10.4,10.4,0,0,0-1.5-.079l-1.3-.069a6.567,6.567,0,0,1-1.988-.2q-.557-.2-.557-.636,0-.546.909-.863a5.766,5.766,0,0,0,.829.2q.216.023.784.022a5.033,5.033,0,0,0,3.5-1.226,4.03,4.03,0,0,0,1.363-3.136,3.965,3.965,0,0,0-.795-2.5,3.693,3.693,0,0,1,.432-.25,2.113,2.113,0,0,1,.75-.114,2.146,2.146,0,0,1,.931.2v-2.181a3.482,3.482,0,0,0-.679-.091,2.742,2.742,0,0,0-2.42,1.295,4.822,4.822,0,0,0-3.127-.977,5.267,5.267,0,0,0-3.662,1.284,4.244,4.244,0,0,0-1.427,3.306,3.581,3.581,0,0,0,1.272,3,2.616,2.616,0,0,0,.841.363q-2.113.954-2.113,2.477a1.912,1.912,0,0,0,1.318,1.84,2.206,2.206,0,0,0-.25,4.294,10.477,10.477,0,0,0,4.385.75,8.977,8.977,0,0,0,4.453-.909,2.849,2.849,0,0,0,1.567-2.59,2.917,2.917,0,0,0-.6-1.829A3.177,3.177,0,0,0,115.185,458.1Zm-6.293-6.384a2.747,2.747,0,0,1,.551-1.817,1.871,1.871,0,0,1,1.517-.659,1.8,1.8,0,0,1,1.493.659,2.793,2.793,0,0,1,.529,1.795,2.87,2.87,0,0,1-.529,1.84,1.78,1.78,0,0,1-1.471.659,1.942,1.942,0,0,1-1.516-.636,2.442,2.442,0,0,1-.574-1.7Zm5.2,10.576a8.167,8.167,0,0,1-2.544.307,9.29,9.29,0,0,1-2.806-.329q-.988-.33-.988-.92,0-.8,1-1.25l.98.136q.41.046,1.037.091t1.266.045q.889,0,1.3.034a4.351,4.351,0,0,1,.752.125q.889.182.889.886Q114.981,461.98,114.095,462.287Z" transform="translate(-93.488 -442.442)"/><path class="d" d="M159.774,449.463q0,.75.046,1.284T160,452.03l-.681-1.613-.341-.727L153.5,439.671h-3.658v16.38H152.8V445.4a4.929,4.929,0,0,0-.075-.772q-.075-.455-.175-.886l.7,1.522.432.75,5.5,10.042h3.68v-16.38h-3.09Z" transform="translate(-118.494 -438.376)"/><path class="d" d="M189.883,447.466a5.1,5.1,0,0,0-4.124,1.8,8.626,8.626,0,0,0,0,9.752,5.123,5.123,0,0,0,4.124,1.78,5.184,5.184,0,0,0,4.18-1.769,8.708,8.708,0,0,0-.011-9.786A5.175,5.175,0,0,0,189.883,447.466Zm0,11.2q-2.567,0-2.567-4.532t2.567-4.532q2.567,0,2.567,4.532T189.883,458.666Z" transform="translate(-137.856 -442.763)"/><path class="d" d="M222.259,447.466h-.523q-2.249,0-4.066,3v-2.635h-3.022v12.609H217.6V454.69a4.44,4.44,0,0,1,1.124-3.1,3.636,3.636,0,0,1,2.806-1.238,3.9,3.9,0,0,1,.727.069Z" transform="translate(-154.965 -442.763)"/><path class="d" d="M242.273,452.919q-.023-.489-.023-1.556V436.709H239.3v6.134a4.233,4.233,0,0,0-6.691.447,8.609,8.609,0,0,0-1.329,5.063A7.51,7.51,0,0,0,232.572,453a4.14,4.14,0,0,0,3.476,1.707,4.3,4.3,0,0,0,3.476-1.749l.3,1.431h2.59Q242.3,453.408,242.273,452.919Zm-2.976-1.946a2.914,2.914,0,0,1-2.443,1.549q-2.624,0-2.624-4.259a6.783,6.783,0,0,1,.7-3.417,2.2,2.2,0,0,1,1.991-1.185,2.673,2.673,0,0,1,2.375,1.481Z" transform="translate(-164.324 -436.709)"/><rect class="d" width="3.06" height="3.06" transform="translate(6.41 0.776)"/><rect class="d" width="3.06" height="3.06" transform="translate(1.823 0.776)"/></g></g></svg>