<svg xmlns="http://www.w3.org/2000/svg" width="106" height="106" viewBox="0 0 106 106"><defs><style>.a{fill:#eff1f5;}.b{fill:none;stroke:#fff;stroke-miterlimit:3.864;stroke-width:4px;}.c{fill:#634496;}.d{fill:#fff;}</style></defs><circle class="a" cx="53" cy="53" r="53"/><g transform="translate(3.133 8.788)"><path class="b" d="M58.578,30.157v8.829l-8.14.035v-13.6ZM34.664,39.119l-7.529.028V55.62h7.56v3.768l-3.568-1.78L18.035,67.891l19.217,8.773,13.2-9.447-.009-11.628,8.143,0V67.135l13.78,9.472,9.373-14.466-7.619-5.1V22.63l-18-11.418L34.664,20.887V39.119Z" transform="translate(-0.148)"/><path class="c" d="M34.538,20.924l21.4-9.688,18,11.377V57.08l7.663,5.068L72.214,76.622l-13.8-9.444V55.616h-8.11v11.6L37.129,76.678,17.867,67.892,30.972,57.607l3.566,1.82V55.616H26.99V39.171h7.548V20.924M50.32,25.447V39.059h8.1v-8.9Z" transform="translate(0 -0.021)"/><path class="d" d="M129.578,204.11c.29.237.565.457.837.66l.015-.1h.684v.609c.229.162.456.3.669.437l0-1.046h.684l.01,1.506c1.788,1.151,2.823,1.8,2.726,3.667-.166,2.272-2.747,2.976-2.729,2.963l-.007,1.566h-.684v-6.06c-.2-.137-.425-.284-.663-.432l-.01,6.493h-.684v-.663a4.718,4.718,0,0,0-1.975,1.854c-.39-2.492.63-3.1,1.979-3.808l0-4.3a15.45,15.45,0,0,1-4.9-4.5,17.144,17.144,0,0,1-4.55-2.881l21.271,0a14.842,14.842,0,0,1-10.83,4.134,13.611,13.611,0,0,1-1.839-.1m-4.8-5.464-5.2,0c.181.209.454.494.648.7l22.769-.008c.194-.219.426-.466.607-.7l-16.535,0c0-3.807,2.119-5.978,4.951-5.992,2.5.082,3.509,1.572,4.832,4.153.19.371.415.263.254-.144-.1-.257-.55-1.3-.418-1.541l.207-.041a5.107,5.107,0,0,1,.7,1.321c.4,1.288,1.744-1.775-1.156-4.244a7.012,7.012,0,0,0-4.457-1.731c-3.247,0-7.2,1.913-7.2,8.225M135.131,216.7l-7.316,0a3.815,3.815,0,0,0-.441.673l8.225,0a2.918,2.918,0,0,0-.468-.673m-6.581-.691,5.867,0a5.183,5.183,0,0,0-2.993-1,4.3,4.3,0,0,0-2.875,1m8.367-21.582a.385.385,0,1,1,.565.238.443.443,0,0,1-.565-.238m-10.491,4.253H125.5s-.3-5.106,3.634-6.989a6.264,6.264,0,0,1,6.751.881l-.576.741a4.949,4.949,0,0,0-5.763-.728c-3.367,1.76-3.114,6.1-3.114,6.1m4.006,13.808a2.761,2.761,0,0,0-1.251,1.184,8.283,8.283,0,0,1,1.247-.681h.009l0-.5m2.04-1.882a.977.977,0,0,0,.431-1.266,1.835,1.835,0,0,0-.421-.509l-.01,1.775m-4.138-6.737a15.3,15.3,0,0,1-1.66-.466c3.759,4.392,6.484,3.968,6.947,6.035a1.737,1.737,0,0,1-1.122,1.947l-.021.7a3,3,0,0,0,1.981-1.941c.531-2.774-2.344-2.676-6.125-6.274" transform="translate(-89.249 -157.252)"/></g></svg>