<svg xmlns="http://www.w3.org/2000/svg" width="106" height="106" viewBox="0 0 106 106"><defs><style>.a{fill:#eff1f5;}.b{fill:#1d3463;stroke:rgba(0,0,0,0);stroke-miterlimit:10;}.c{fill:#cb1d3c;}</style></defs><circle class="a" cx="53" cy="53" r="53"/><g transform="translate(-417 -434)"><path class="b" d="M32.855,35.418c-1.663-1.662-3.345-3.3-4.976-5a1.04,1.04,0,0,0-1.6-.136c-6.043,4.072-12.3,4.2-18.48.519a15.515,15.515,0,0,1-7.761-13A16.167,16.167,0,0,1,4.722,4.973C7.954,1.651,11.982.049,17.139,0A16.478,16.478,0,0,1,33.056,13.777a16.156,16.156,0,0,1-2.524,12.1,1.145,1.145,0,0,0,.184,1.754c1.9,1.826,3.742,3.7,5.6,5.571,1.018,1.022,1.011,1.2.02,2.2-.869.877-1.3,1.315-1.739,1.315S33.725,36.288,32.855,35.418ZM16.7,5.056A11.505,11.505,0,0,0,5.006,16.714,11.493,11.493,0,0,0,16.663,28.308a11.461,11.461,0,0,0,11.581-11.69,11.522,11.522,0,0,0-11.5-11.563ZM45.554,33.538c-.868-.029-1.276-.445-1.271-1.367.027-4.261.013-8.524.013-12.785q0-6.111,0-12.222c0-1.658,0-1.657-1.615-1.657-2.57,0-5.139.007-7.709,0C33.7,5.5,33.439,5.251,33.385,3.964c-.035-.875-.032-1.755,0-2.631C33.418.294,33.731,0,34.758,0Q46.745,0,58.733,0c1.107,0,1.3.2,1.33,1.321.022.907.016,1.818,0,2.726-.015,1.19-.251,1.445-1.436,1.452-2.695.015-5.39,0-8.086,0-1.4,0-1.406,0-1.406,1.4q0,12.552,0,25.1c0,1.292-.231,1.534-1.517,1.549q-.335.005-.67.005Q46.253,33.562,45.554,33.538Z" transform="translate(456.745 468.777)"/><path class="c" d="M376.065,580.756l2.364,3.488c-.2.217-.387.451-.6.664q-3.329,3.322-6.665,6.637c-2.626,2.6-5.862,2.687-8.494.092-4.911-4.843-9.809-9.7-14.624-14.64a14.348,14.348,0,0,1-2.724-16.042,14.546,14.546,0,0,1,14.355-8.363,14.014,14.014,0,0,1,6.452,2.154,1.2,1.2,0,0,0,1.5.006,14.363,14.363,0,0,1,13.86-.81c.194.085.364.222.136-.011-.785,1.018-1.556,2.048-2.372,3.041a.8.8,0,0,1-.677.085c-4.374-1.312-8.088-.167-11.27,3a5.093,5.093,0,0,1-.427.339c-.5-.426-1-.844-1.492-1.27-3.987-3.44-10.157-3.414-13.8-.053a10.536,10.536,0,0,0-1.344,14.429,17,17,0,0,0,1.278,1.378q6.849,6.852,13.707,13.7c1.3,1.294,1.99,1.285,3.316-.033q3.434-3.417,6.856-6.845A7.279,7.279,0,0,0,376.065,580.756Z" transform="translate(79.022 -85.541)"/></g></svg>