<svg xmlns="http://www.w3.org/2000/svg" width="40" height="40" viewBox="0 0 40 40"><defs><style>.a{fill:#fff;}.b{fill:none;}</style></defs><g transform="translate(-387.499 -491.63)"><path class="a" d="M427.015,502.313c-.232.284-.435.529-.633.778a6.144,6.144,0,0,1-3.676,2.563,6.333,6.333,0,0,0-2.174,1.174,12.552,12.552,0,0,0-3.43,4.211,9.03,9.03,0,0,0-.464,1.056c.435.174.886.521,1.3.481a2.592,2.592,0,0,0,1.611-.658,3.8,3.8,0,0,1,2.576-1.3,1.737,1.737,0,0,1,2.211,1.564,5.765,5.765,0,0,1-.9,4.488,8.545,8.545,0,0,1-3.855,3.183,8.524,8.524,0,0,0-2.277,1.671,1.07,1.07,0,0,0-.091,1.037c.136.213.666.295.994.246a12.883,12.883,0,0,0,6.721-2.956,8.9,8.9,0,0,0,3.351-5.6,18.279,18.279,0,0,1,2.058-6.844c.341-.568.664-1.148,1.007-1.743Z" transform="translate(-9.173)"/><path class="a" d="M405.808,520.665a26.58,26.58,0,0,0-2.461-1.294,6.977,6.977,0,0,1-3.729-7.086,1.787,1.787,0,0,1,2.194-1.613,3.63,3.63,0,0,1,2.576,1.292,1.96,1.96,0,0,0,3.075-.03c-.648-.983-1.26-2-1.956-2.949a7.209,7.209,0,0,0-3.647-3.022,8.724,8.724,0,0,1-4.8-3.409c-.031-.041-.115-.043-.237-.084l-4.171,3.258c.116.23.164.348.231.454a15.831,15.831,0,0,1,2.582,6.956,9.069,9.069,0,0,0,4.427,7.349c.245.146.425.406.675.539a19.609,19.609,0,0,0,2.551,1.255,15.487,15.487,0,0,0,2.712.6c.307.049.831-.015.93-.2a1.3,1.3,0,0,0-.045-1.054A2.588,2.588,0,0,0,405.808,520.665Z" transform="translate(0 -0.06)"/><path class="a" d="M418.329,523.474a2.672,2.672,0,0,0-1.367-3.386c-1.343-.567-2.361-.142-3.261,1.386-.1-.071-.167-.093-.188-.135a2.3,2.3,0,0,0-3.205-1.233,2.649,2.649,0,0,0-1.362,3.249,6.333,6.333,0,0,0,2.736,3.587c2.261,1.6,1.711,1.573,3.91.023A6.452,6.452,0,0,0,418.329,523.474Z" transform="translate(-6.189 -6.706)"/></g><rect class="b" width="40" height="40"/></svg>