<svg xmlns="http://www.w3.org/2000/svg" width="40" height="40" viewBox="0 0 40 40"><defs><style>.a{fill:#fff;}.b{fill:none;}</style></defs><path class="a" d="M8.023,27.4h0L0,23.717l5.458-4.305,1.485.762v-1.6H3.8V11.694H6.943V4.056L15.857,0l7.5,4.763V19.192l3.191,2.121-3.911,6.059-5.746-3.953V18.578H13.511v4.857L8.023,27.4Zm.6-7.208h0a1.624,1.624,0,0,0-.184.282l3.425,0a1.219,1.219,0,0,0-.195-.282l-3.047,0Zm1.5-.7a1.79,1.79,0,0,0-1.2.416l2.443,0A2.14,2.14,0,0,0,10.124,19.484ZM5.772,13.229a7.173,7.173,0,0,0,1.895,1.206,6.455,6.455,0,0,0,2.042,1.884l0,1.8a1.257,1.257,0,0,0-.825,1.594l.028-.039a1.9,1.9,0,0,1,.8-.737v.277h.285L10,16.5c.106.067.2.132.276.181v2.537h.285l0-.655c.011,0,1.067-.29,1.137-1.24.04-.775-.4-1.058-1.121-1.526l-.015-.009,0-.631h-.285l0,.438-.084-.054c-.063-.04-.129-.082-.2-.129v-.255H9.709L9.7,15.2c-.122-.092-.244-.191-.348-.276a5.7,5.7,0,0,0,.766.04h.007a6.147,6.147,0,0,0,4.5-1.73Zm-.582-.6c.061.072.147.163.223.244l.047.05,9.483,0,.054-.06c.07-.078.14-.156.2-.232l-6.887,0c0-1.518.81-2.5,2.062-2.509,1.065.035,1.488.711,2.012,1.738.03.059.066.1.094.1a.028.028,0,0,0,.024-.013.176.176,0,0,0-.013-.142l-.014-.034c-.058-.142-.211-.519-.161-.612l.086-.018a2.169,2.169,0,0,1,.29.553c.025.082.062.127.1.127s.091-.053.123-.142a1.74,1.74,0,0,0-.709-1.762,2.927,2.927,0,0,0-1.848-.725h-.008a2.953,2.953,0,0,0-2.007.731,3.506,3.506,0,0,0-.992,2.712Zm8.326-6.683v5.7h3.372V7.921ZM9.19,18.922v0a1.132,1.132,0,0,1,.517-.491l.005.208a3.316,3.316,0,0,0-.521.284Zm1.373-.665h0l.008-.292a.735.735,0,0,0,.467-.815c-.091-.409-.395-.586-.854-.852a7.045,7.045,0,0,1-2.039-1.674,6.356,6.356,0,0,0,.691.2,9.566,9.566,0,0,0,1.583,1.2c.689.441,1.1.706.968,1.424a1.26,1.26,0,0,1-.824.812Zm0-.618h0l0-.742a.777.777,0,0,1,.176.213.414.414,0,0,1-.178.53ZM8.042,12.646H7.655A3.178,3.178,0,0,1,9.168,9.721,2.745,2.745,0,0,1,10.3,9.464a2.621,2.621,0,0,1,1.676.625l-.24.311a2.052,2.052,0,0,0-1.391-.559,2.249,2.249,0,0,0-1.009.254,2.847,2.847,0,0,0-1.3,2.551Zm4.542-1.664a.213.213,0,0,1-.173-.116.187.187,0,0,1,.032-.254.125.125,0,0,1,.062-.016.213.213,0,0,1,.173.115.187.187,0,0,1-.032.255A.121.121,0,0,1,12.585,10.982Z" transform="translate(6 6)"/><rect class="b" width="40" height="40"/></svg>