<svg xmlns="http://www.w3.org/2000/svg" width="40" height="40" viewBox="0 0 40 40"><defs><style>.a{fill:#fff;}.b{fill:none;}</style></defs><g transform="translate(-420 -455)"><path class="a" d="M12.184,13.134c-.617-.616-1.24-1.225-1.845-1.853a.385.385,0,0,0-.592-.051,5.987,5.987,0,0,1-6.853.192A5.753,5.753,0,0,1,.015,6.6,6,6,0,0,1,1.751,1.844,6.141,6.141,0,0,1,6.356,0a6.11,6.11,0,0,1,5.9,5.108A5.991,5.991,0,0,1,11.322,9.6a.425.425,0,0,0,.068.651c.7.677,1.388,1.373,2.076,2.066.377.379.375.447.007.817-.322.325-.483.487-.645.487S12.506,13.457,12.184,13.134ZM6.192,1.875A4.267,4.267,0,0,0,1.856,6.2a4.262,4.262,0,0,0,4.323,4.3,4.25,4.25,0,0,0,4.294-4.335A4.273,4.273,0,0,0,6.207,1.875Zm10.7,10.562c-.322-.011-.473-.165-.471-.507.01-1.58,0-3.161,0-4.741q0-2.266,0-4.532c0-.615,0-.615-.6-.615-.953,0-1.906,0-2.859,0-.472,0-.569-.094-.589-.571-.013-.325-.012-.651,0-.976.013-.385.129-.493.51-.494q4.445,0,8.891,0c.41,0,.483.072.493.49.008.336.006.674,0,1.011-.006.441-.093.536-.532.538-1,.005-2,0-3,0-.52,0-.521,0-.521.519q0,4.655,0,9.309c0,.479-.086.569-.563.574l-.249,0Q17.152,12.446,16.893,12.437Z" transform="translate(435.514 467.659)"/><path class="a" d="M355.876,563l.877,1.293c-.073.08-.144.167-.223.246q-1.235,1.232-2.471,2.461a2.077,2.077,0,0,1-3.15.034c-1.821-1.8-3.638-3.6-5.423-5.429a5.32,5.32,0,0,1-1.01-5.949,5.394,5.394,0,0,1,5.323-3.1,5.2,5.2,0,0,1,2.393.8.446.446,0,0,0,.556,0,5.326,5.326,0,0,1,5.14-.3c.072.031.135.082.051,0-.291.378-.577.76-.88,1.128a.3.3,0,0,1-.251.031,3.952,3.952,0,0,0-4.179,1.111,1.89,1.89,0,0,1-.158.126c-.186-.158-.371-.313-.553-.471a3.887,3.887,0,0,0-5.615,5.331,6.3,6.3,0,0,0,.474.511q2.54,2.541,5.083,5.079c.481.48.738.477,1.23-.012q1.273-1.267,2.543-2.538A2.7,2.7,0,0,0,355.876,563Z" transform="translate(79.022 -85.541)"/></g><rect class="b" width="40" height="40"/></svg>