<svg xmlns="http://www.w3.org/2000/svg" width="40" height="40" viewBox="0 0 40 40"><defs><style>.a{fill:#fff;}.b{fill:none;}</style></defs><path class="a" d="M20.066,25.505a1.088,1.088,0,0,1,1.179-1.174,2.113,2.113,0,0,1,.609.094l-.056.228a1.617,1.617,0,0,0-.583-.111.837.837,0,0,0-.882.924.81.81,0,0,0,.868.9,1.346,1.346,0,0,0,.431-.066v-.855h.254v1.012a2.2,2.2,0,0,1-.724.123A1,1,0,0,1,20.066,25.505Zm-6.282.321V24.359h.254V25.8c0,.315.105.576.587.576.408,0,.609-.169.609-.638V24.359h.247v1.364a.776.776,0,0,1-.876.861C13.916,26.584,13.784,26.2,13.784,25.826Zm-3.028.729v-2.2c.151,0,.349-.009.616-.009.474,0,.7.2.7.52a.54.54,0,0,1-.4.521V25.4a.5.5,0,0,1,.472.51c0,.28-.188.657-.853.657C11.125,26.565,10.947,26.558,10.756,26.555Zm.254-1.038v.83c.059.006.2.016.3.016.4,0,.563-.192.563-.439,0-.3-.26-.41-.653-.41C11.183,25.515,11.062,25.515,11.01,25.518Zm0-.962v.767c.066,0,.125,0,.211,0,.4,0,.586-.153.586-.413,0-.208-.109-.365-.481-.365C11.217,24.548,11.1,24.552,11.01,24.556Zm-2.163,2h0l-.2-1.356c-.036-.25-.059-.436-.072-.556H8.57a3.406,3.406,0,0,1-.109.374l-.523,1.538h-.28l-.5-1.441c-.059-.173-.105-.332-.142-.472h0c-.014.173-.033.357-.059.579L6.8,26.555h-.26l.316-2.2h.319l.51,1.487c.037.107.089.276.125.426h0c.042-.149.079-.273.122-.4l.52-1.508h.33l.329,2.2Zm9.471,0-.78-1.014H17.5v1.014h-.254v-2.2c.142-.006.287-.009.524-.009.418,0,.734.143.734.553a.65.65,0,0,1-.695.621c.066.075.141.157.2.228l.638.8Zm-.82-2v.79c.036,0,.1.007.2.007.343,0,.54-.173.54-.417,0-.286-.184-.391-.527-.391C17.629,24.548,17.564,24.552,17.5,24.558Zm-12.638,2-.191-.54H3.678l-.2.54H3.22l.824-2.2h.28l.823,2.2ZM4.077,24.92l-.33.9H4.6l-.329-.891c-.036-.108-.068-.205-.1-.3H4.169C4.142,24.721,4.109,24.819,4.077,24.92ZM1.462,26.555V25.521H.255v1.034H0v-2.2H.255v.953H1.462v-.953h.251v2.2Zm20.428-4.663H0V0H21.892V10.008h3.128v1.751H21.892V13.2h2.815v1.75H21.892v1.439h3.128v1.751H21.892v3.752h0ZM6.255,15.371c0,1.967.981,2.884,3.088,2.884,2.154,0,3.292-1.121,3.292-3.244V10.024H11.35v5.082c0,1.469-.557,2.067-1.923,2.067-1.651,0-1.862-1.015-1.862-1.9V10.024H6.255Zm9.386-1.2,2.942,3.963h1.742l-3.34-4.193,3.22-3.918H18.6l-2.957,3.761V10.024H14.33v8.111h1.309V14.17Z" transform="translate(8 7)"/><rect class="b" width="40" height="40"/></svg>